<svg width="24" height="24" viewBox="0 0 24 24" fill="none" xmlns="http://www.w3.org/2000/svg">
<path d="M3.299 17.596C3.731 18.928 5.044 19.778 6.445 19.778H6.5C6.62853 20.4054 6.96969 20.9691 7.46582 21.3739C7.96196 21.7788 8.58265 21.9999 9.223 22C9.68 22 10.107 21.885 10.485 21.687C10.6429 21.6007 10.7743 21.473 10.865 21.3176C10.9558 21.1622 11.0024 20.985 11 20.805V3.02704C11.0015 2.79809 10.9243 2.57556 10.7814 2.39665C10.6386 2.21773 10.4386 2.09327 10.215 2.04404C9.71332 1.9463 9.1934 2.01696 8.736 2.24504C7.992 2.60104 7.556 3.39604 7.556 4.22304V4.27804C6.99921 4.1644 6.42097 4.22425 5.89925 4.44951C5.37754 4.67478 4.93746 5.05462 4.63837 5.53781C4.33928 6.021 4.19557 6.58429 4.22661 7.15171C4.25766 7.71913 4.46197 8.26337 4.812 8.71104C4.02834 8.83445 3.31449 9.23357 2.79896 9.83654C2.28344 10.4395 2.00011 11.2067 2 12C2 13.178 2.611 14.211 3.533 14.812C3.103 15.583 2.962 16.558 3.299 17.596ZM19.188 8.71104C19.538 8.26337 19.7423 7.71913 19.7734 7.15171C19.8044 6.58429 19.6607 6.021 19.3616 5.53781C19.0625 5.05462 18.6225 4.67478 18.1007 4.44951C17.579 4.22425 17.0008 4.1644 16.444 4.27804V4.22304C16.444 3.39704 16.007 2.60104 15.263 2.24504C14.8059 2.01718 14.2864 1.94652 13.785 2.04404C13.5614 2.09327 13.3614 2.21773 13.2186 2.39665C13.0757 2.57556 12.9985 2.79809 13 3.02704V20.804C13 21.169 13.192 21.516 13.516 21.686C13.894 21.885 14.32 22 14.777 22C15.4175 21.9999 16.0383 21.7786 16.5344 21.3735C17.0306 20.9685 17.3717 20.4046 17.5 19.777H17.556C18.956 19.777 20.27 18.927 20.702 17.595C21.039 16.557 20.898 15.582 20.468 14.811C20.9377 14.5076 21.3239 14.0914 21.5915 13.6004C21.8591 13.1094 21.9995 12.5592 22 12C21.9999 11.2067 21.7166 10.4395 21.201 9.83654C20.6855 9.23357 19.9717 8.83445 19.188 8.71104Z" fill="black"/>
</svg>
