<svg width="24" height="24" viewBox="0 0 24 24" fill="none" xmlns="http://www.w3.org/2000/svg">
<path d="M4.32423 20.2961C4.32423 20.2961 2.88281 20.2961 2.88281 18.8546C2.88281 17.4132 4.32423 13.089 11.5313 13.089C18.7384 13.089 20.1798 17.4132 20.1798 18.8546C20.1798 20.2961 18.7384 20.2961 18.7384 20.2961H4.32423ZM11.5313 11.6475C12.6782 11.6475 13.7781 11.1919 14.589 10.381C15.4 9.57004 15.8556 8.47015 15.8556 7.32328C15.8556 6.17642 15.4 5.07653 14.589 4.26557C13.7781 3.45461 12.6782 2.99902 11.5313 2.99902C10.3845 2.99902 9.28457 3.45461 8.47362 4.26557C7.66266 5.07653 7.20707 6.17642 7.20707 7.32328C7.20707 8.47015 7.66266 9.57004 8.47362 10.381C9.28457 11.1919 10.3845 11.6475 11.5313 11.6475Z" fill="#F1E167"/>
</svg>
