<svg width="25" height="25" viewBox="0 0 25 25" fill="none" xmlns="http://www.w3.org/2000/svg">
<path d="M7.2915 20.8333V19.7916H6.24984C5.38178 19.7916 4.64393 19.4878 4.0363 18.8802C3.42866 18.2725 3.12484 17.5347 3.12484 16.6666V13.5416H1.0415V11.4583H3.12484V8.33329C3.12484 7.46524 3.42866 6.72739 4.0363 6.11975C4.64393 5.51211 5.38178 5.20829 6.24984 5.20829H7.2915V4.16663H9.37484V20.8333H7.2915ZM15.6248 20.8333V16.6666H11.4582V14.5833H15.6248V10.4166H11.4582V8.33329H15.6248V4.16663H17.7082V5.20829H18.7498C19.6179 5.20829 20.3557 5.51211 20.9634 6.11975C21.571 6.72739 21.8748 7.46524 21.8748 8.33329V11.4583H23.9582V13.5416H21.8748V16.6666C21.8748 17.5347 21.571 18.2725 20.9634 18.8802C20.3557 19.4878 19.6179 19.7916 18.7498 19.7916H17.7082V20.8333H15.6248Z" fill="black"/>
</svg>
