<svg width="70" height="68" viewBox="0 0 70 68" fill="none" xmlns="http://www.w3.org/2000/svg">
<g clip-path="url(#clip0_58_465)">
<path d="M58.3789 0H11.6211C5.20294 0 0 5.17559 0 11.56V56.3312C0 62.7156 5.20294 67.8912 11.6211 67.8912H58.3789C64.7971 67.8912 70 62.7156 70 56.3312V11.56C70 5.17559 64.7971 0 58.3789 0Z" fill="#1C1B24"/>
<path d="M33.9212 40.7428H23.0739L20.8667 47.5627C20.8367 47.6871 20.764 47.7972 20.6611 47.8739C20.5582 47.9507 20.4317 47.9893 20.3032 47.9832H14.809C14.4958 47.9832 14.3863 47.8118 14.4803 47.4691L23.8721 20.5634C23.966 20.2833 24.0599 19.9641 24.1537 19.606C24.2768 18.9826 24.3397 18.3494 24.3416 17.7142C24.3352 17.6698 24.3393 17.6245 24.3535 17.5819C24.3678 17.5393 24.3918 17.5007 24.4237 17.4689C24.4556 17.4372 24.4945 17.4132 24.5373 17.399C24.5801 17.3848 24.6256 17.3807 24.6703 17.387H32.1367C32.3555 17.387 32.4807 17.465 32.5125 17.6209L43.1719 47.5159C43.2657 47.8278 43.1719 47.9836 42.8902 47.9832H36.7855C36.6807 47.9946 36.5753 47.9677 36.4889 47.9076C36.4025 47.8474 36.3411 47.7581 36.316 47.6563L33.9212 40.7428ZM24.7643 34.8573H32.1838L32.078 34.51L31.9082 33.96L31.787 33.5737L31.5937 32.9655L31.1827 31.6852L30.8212 30.5502L29.8825 27.5935C29.6489 26.8586 29.4246 26.1207 29.2099 25.38L29.0382 24.7789L28.8375 24.0682L28.5312 22.9666L28.4738 22.759H28.427C28.192 23.8802 27.9059 24.9902 27.5695 26.0856L26.8728 28.3149L26.4894 29.5465L26.1025 30.7934C26.0327 31.0186 25.963 31.2412 25.8934 31.4614L25.6855 32.1136L25.4788 32.7507L25.2732 33.3719L25.0687 33.9777C25.0009 34.1771 24.9331 34.3739 24.8655 34.5679L24.7643 34.8573ZM49.5107 22.3385C49.0318 22.3576 48.5542 22.2759 48.1092 22.0988C47.6641 21.9217 47.2617 21.6532 46.9281 21.3109C46.5956 20.9535 46.3373 20.5343 46.1681 20.0774C45.9988 19.6205 45.9219 19.1348 45.9418 18.6483C45.9248 18.1666 46.0101 17.6868 46.1921 17.2401C46.3742 16.7934 46.6489 16.39 46.9984 16.0561C47.6724 15.4125 48.5701 15.0523 49.5044 15.0505L49.6045 15.0516C50.7316 15.0516 51.6161 15.3864 52.2579 16.0558C52.5818 16.4038 52.8335 16.8119 52.9987 17.2567C53.1638 17.7016 53.2392 18.1744 53.2204 18.6483C53.2403 19.1368 53.1612 19.6243 52.9877 20.0818C52.8143 20.5393 52.5501 20.9573 52.2109 21.3112C51.8685 21.6468 51.4622 21.9109 51.0157 22.0879C50.5692 22.2649 50.0916 22.3514 49.611 22.342L49.5107 22.3385ZM46.2705 47.5159V25.188C46.2703 24.9076 46.3955 24.7675 46.6462 24.7675H52.4223C52.6725 24.7675 52.7978 24.9076 52.798 25.188V47.5159C52.798 47.8278 52.6727 47.9836 52.4223 47.9832H46.6932C46.4263 47.9832 46.2859 47.8434 46.2718 47.5638L46.2705 47.5159Z" fill="white"/>
</g>
<defs>
<clipPath id="clip0_58_465">
<rect width="70" height="68" fill="white"/>
</clipPath>
</defs>
</svg>
