<svg width="24" height="24" viewBox="0 0 24 24" fill="none" xmlns="http://www.w3.org/2000/svg">
<path d="M4.32423 20.3586C4.32423 20.3586 2.88281 20.3586 2.88281 18.9171C2.88281 17.4757 4.32423 13.1515 11.5313 13.1515C18.7384 13.1515 20.1798 17.4757 20.1798 18.9171C20.1798 20.3586 18.7384 20.3586 18.7384 20.3586H4.32423ZM11.5313 11.71C12.6782 11.71 13.7781 11.2544 14.589 10.4435C15.4 9.63254 15.8556 8.53265 15.8556 7.38578C15.8556 6.23892 15.4 5.13903 14.589 4.32807C13.7781 3.51711 12.6782 3.06152 11.5313 3.06152C10.3845 3.06152 9.28457 3.51711 8.47362 4.32807C7.66266 5.13903 7.20707 6.23892 7.20707 7.38578C7.20707 8.53265 7.66266 9.63254 8.47362 10.4435C9.28457 11.2544 10.3845 11.71 11.5313 11.71Z" fill="#5878E0"/>
</svg>
