<svg width="80" height="80" viewBox="0 0 80 80" fill="none" xmlns="http://www.w3.org/2000/svg">
<path d="M72.8965 43.91C72.7965 43.91 72.6965 43.9766 72.6298 44.1433C71.9598 46.08 71.0232 47.25 70.2565 47.25C69.8232 47.25 69.6565 46.75 69.6565 46.0166C69.6565 44.11 70.7898 40.0666 71.3565 38.1966C71.4232 37.9633 71.4565 37.7633 71.4565 37.5966C71.4565 37.06 71.1565 36.79 70.4232 36.79C69.6565 36.79 68.7865 37.09 67.9832 38.53C67.7165 37.26 66.8498 36.7233 65.6432 36.7233C64.2765 36.7233 62.9365 37.6266 61.8365 39.0633C60.7332 40.5 59.4298 40.97 58.4598 40.7333C59.1598 39.0333 59.4265 37.7266 59.4265 36.79C59.4265 35.29 58.6932 34.3866 57.4932 34.3866C55.6865 34.3866 54.6498 36.1233 54.6498 37.9266C54.6498 39.33 55.2832 40.7666 56.6898 41.47C55.5198 44.11 53.8165 46.5166 53.1465 46.5166C52.3132 46.5166 52.0465 42.4066 52.1132 39.4633C52.1465 37.7966 52.2798 37.6966 52.2798 37.1933C52.2798 36.8933 52.0798 36.6933 51.3098 36.6933C49.5365 36.6933 48.9698 38.1933 48.9032 39.9333C48.8698 40.6 48.7698 41.2333 48.6032 41.87C47.8698 44.51 46.3298 46.55 45.3265 46.55C44.8598 46.55 44.7265 46.0833 44.7265 45.48C44.7265 43.5733 45.7932 41.17 45.7932 39.13C45.7932 37.63 45.1265 36.69 43.8932 36.69C42.4198 36.69 40.5165 38.43 38.6798 41.67C39.2798 39.1966 39.5132 36.7933 37.7432 36.7933C37.3432 36.7933 36.9754 36.8933 36.6398 37.0933C36.5263 37.1459 36.4308 37.231 36.3656 37.3377C36.3003 37.4445 36.2682 37.5683 36.2732 37.6933C36.4398 40.3333 34.1332 47.1166 31.9632 47.1166C31.5632 47.1166 31.3632 46.6833 31.3632 45.9833C31.3632 44.0766 32.4965 40.0333 33.0632 38.16C33.1255 37.9545 33.1591 37.7413 33.1632 37.5266C33.1632 37.0266 32.8632 36.76 32.1298 36.76C31.3632 36.76 30.4932 37.06 29.6898 38.4933C29.3898 37.2266 28.5565 36.6933 27.3498 36.6933C25.3798 36.6933 23.2065 38.76 22.2365 41.47C20.9365 45.08 18.3632 48.5866 14.8532 48.5866C11.6798 48.5866 10.0065 45.9466 10.0065 41.77C10.0065 35.7233 14.4532 30.81 17.7265 30.81C19.2965 30.81 20.0332 31.81 20.0332 33.35C20.0332 35.22 18.9998 36.0566 18.9998 36.79C18.9998 36.99 19.1665 37.2233 19.5332 37.2233C20.9665 37.2233 22.6398 35.5566 22.6398 33.25C22.6398 30.9433 20.8332 29.3066 17.5598 29.3066C12.1132 29.3066 6.6665 34.7533 6.6665 41.7733C6.6665 47.35 9.4065 50.6933 14.1532 50.6933C17.3932 50.6933 20.2332 48.1866 21.7365 45.2466C21.9032 47.6866 23.0065 48.9533 24.7098 48.9533C26.2132 48.9533 27.4165 48.0533 28.3532 46.4833C28.7198 48.1166 29.6532 48.92 30.8932 48.92C32.2932 48.92 33.4998 48.02 34.5998 46.3833C34.5998 47.6833 34.8665 48.92 36.0065 48.92C36.5398 48.92 37.1732 48.7866 37.2732 48.32C38.4765 43.4066 41.4198 39.3633 42.3198 39.3633C42.5865 39.3633 42.6532 39.63 42.6532 39.93C42.6532 41.27 41.7198 44.01 41.7198 45.7466C41.7198 47.6533 42.5198 48.8866 44.1932 48.8866C46.0298 48.8866 47.8998 46.65 49.1365 43.34C49.5365 46.4166 50.3732 48.8866 51.6765 48.8866C53.2798 48.8866 56.1865 45.48 57.9265 41.87C58.5932 41.97 59.6298 41.9366 60.6332 41.2366C60.1998 42.3033 59.9665 43.4733 59.9665 44.61C59.9665 47.9533 61.5665 48.8866 62.9365 48.8866C64.4398 48.8866 65.6432 47.9866 66.5798 46.4166C66.8798 47.8166 67.6798 48.8533 69.1198 48.8533C71.3598 48.8533 73.3298 46.55 73.3298 44.6433C73.3632 44.2433 73.1298 43.91 72.8965 43.91ZM26.1132 47.0833C25.2132 47.0833 24.8465 46.1833 24.8465 44.81C24.8465 42.44 26.4798 38.4633 28.1865 38.4633C28.9198 38.4633 29.2198 39.33 29.2198 40.4333C29.2198 42.84 27.6865 47.0833 26.1132 47.0833ZM57.2898 40C56.7565 39.3666 56.5565 38.4633 56.5565 37.6933C56.5565 36.7266 56.9232 35.9233 57.3232 35.9233C57.7232 35.9233 57.8898 36.3233 57.8898 36.9233C57.8565 37.86 57.5232 39.2966 57.2898 40ZM64.3398 47.0833C63.4398 47.0833 63.0732 46.0166 63.0732 44.81C63.0732 42.5066 64.7065 38.4633 66.4132 38.4633C67.1465 38.4633 67.4132 39.33 67.4132 40.4333C67.4465 42.84 65.9465 47.0833 64.3398 47.0833Z" fill="white"/>
</svg>
