<svg width="25" height="25" viewBox="0 0 25 25" fill="none" xmlns="http://www.w3.org/2000/svg">
<path d="M9.37353 16.4062C9.03695 16.407 8.70852 16.3027 8.43404 16.1079C8.15955 15.9131 7.95269 15.6375 7.84228 15.3195L7.22431 13.4203C7.07857 12.9772 6.83046 12.5746 6.50009 12.2453C6.17021 11.914 5.76763 11.6642 5.32431 11.5156L3.44853 10.9055C3.2091 10.8251 2.99174 10.6899 2.81378 10.5107C2.63582 10.3315 2.50217 10.1132 2.42349 9.87317C2.3448 9.63318 2.32326 9.37812 2.36057 9.12833C2.39787 8.87853 2.493 8.6409 2.63838 8.43437C2.83213 8.1578 3.10713 7.94843 3.42588 7.83593L5.33134 7.21874C5.75903 7.06776 6.14703 6.82201 6.46632 6.49988C6.7856 6.17776 7.02791 5.78759 7.17509 5.35859L7.79853 3.4414C7.90791 3.11562 8.11884 2.83359 8.40009 2.63593C8.67561 2.44543 9.00263 2.34338 9.33759 2.34338C9.67256 2.34338 9.99958 2.44543 10.2751 2.63593C10.5485 2.8289 10.7548 3.10156 10.8657 3.41718L11.4868 5.32343C11.6339 5.7653 11.8822 6.16672 12.2117 6.49576C12.5413 6.82479 12.9431 7.07236 13.3853 7.21874L15.2642 7.82812C15.6048 7.93671 15.9009 8.15234 16.1095 8.44296C16.303 8.71623 16.407 9.04285 16.407 9.37773C16.407 9.71261 16.303 10.0392 16.1095 10.3125C15.9165 10.5859 15.6438 10.793 15.3282 10.9055L13.4196 11.5258C12.9789 11.6719 12.5786 11.9195 12.2509 12.2484C11.922 12.5789 11.6728 12.9812 11.5251 13.4234L10.9157 15.3C10.8007 15.6228 10.5917 15.9038 10.3157 16.107C10.0407 16.3023 9.71103 16.4078 9.37353 16.4062ZM18.3626 23.4375C18.0813 23.4386 17.8066 23.3518 17.577 23.1894C17.3473 23.0269 17.174 22.7969 17.0813 22.5312L16.6532 21.2219C16.5659 20.9528 16.4163 20.7081 16.2165 20.5078C16.0156 20.3077 15.7712 20.1567 15.5024 20.0664L14.211 19.6484C13.9372 19.5551 13.7001 19.3773 13.5337 19.1406C13.4114 18.9695 13.3307 18.7722 13.298 18.5644C13.2653 18.3567 13.2815 18.1441 13.3453 17.9437C13.409 17.7433 13.5186 17.5605 13.6654 17.4098C13.8122 17.2592 13.992 17.1448 14.1907 17.0758L15.504 16.6476C15.7668 16.555 16.0048 16.4033 16.1997 16.2042C16.3946 16.0051 16.5412 15.7639 16.6282 15.4992L17.0462 14.2101C17.1126 14.0085 17.2256 13.8253 17.3759 13.6753C17.5263 13.5254 17.7098 13.4129 17.9117 13.3471C18.1135 13.2812 18.3281 13.2638 18.5379 13.2962C18.7478 13.3286 18.947 13.4099 19.1196 13.5336C19.3501 13.6953 19.5235 13.9258 19.6149 14.1914L20.0415 15.5008C20.1315 15.7681 20.2823 16.0108 20.4822 16.2099C20.682 16.4089 20.9254 16.5588 21.1931 16.6476L22.486 17.0695C22.7585 17.1541 22.9973 17.3226 23.1683 17.551C23.3392 17.7794 23.4336 18.056 23.438 18.3413C23.4423 18.6266 23.3563 18.9059 23.1924 19.1394C23.0284 19.3729 22.7949 19.5486 22.5251 19.6414L21.2181 20.068C20.95 20.156 20.7065 20.3058 20.5071 20.5055C20.3078 20.7061 20.1573 20.9499 20.0673 21.218L19.647 22.507C19.553 22.7803 19.3753 23.017 19.1392 23.1836C18.9127 23.3463 18.6414 23.435 18.3626 23.4375Z" fill="black"/>
</svg>
