<svg width="20" height="20" viewBox="0 0 20 20" fill="none" xmlns="http://www.w3.org/2000/svg">
<path d="M10.4999 17.2509C10.8911 17.598 11.367 17.8357 11.8794 17.9401C12.3918 18.0445 12.9227 18.0119 13.4185 17.8455C13.9143 17.6792 14.3575 17.385 14.7032 16.9926C15.049 16.6003 15.2852 16.1237 15.3879 15.611L15.4249 15.425C16.0851 15.2853 16.6854 14.9436 17.1424 14.4471C17.5994 13.9507 17.8905 13.3242 17.9751 12.6548C18.0598 11.9854 17.9339 11.3062 17.6149 10.7116C17.2958 10.117 16.7995 9.63655 16.1949 9.33695C16.4487 9.10292 16.6512 8.81887 16.7897 8.50272C16.9283 8.18656 16.9998 7.84513 16.9999 7.49995V7.30195C16.9996 6.67825 16.7834 6.07389 16.388 5.59155C15.9926 5.1092 15.4424 4.77861 14.8309 4.65595L14.4249 4.57595L14.2989 3.94795C14.2193 3.54965 14.0408 3.17776 13.7798 2.86647C13.5189 2.55519 13.1839 2.3145 12.8056 2.16653C12.4273 2.01857 12.0179 1.96807 11.615 2.01969C11.2121 2.07132 10.8287 2.2234 10.4999 2.46195V17.2509ZM9.49992 2.46095C9.17116 2.22216 8.78762 2.06989 8.38459 2.01814C7.98156 1.9664 7.572 2.01683 7.19357 2.16482C6.81514 2.31281 6.48001 2.55358 6.219 2.865C5.95799 3.17642 5.77949 3.54848 5.69992 3.94695L5.57492 4.57495L5.16892 4.65595C4.55741 4.77861 4.00722 5.1092 3.61182 5.59155C3.21643 6.07389 3.00022 6.67825 2.99992 7.30195V7.49995C2.99992 8.22595 3.30992 8.87995 3.80492 9.33695C3.20031 9.63655 2.70402 10.117 2.38499 10.7116C2.06596 11.3062 1.94003 11.9854 2.0247 12.6548C2.10937 13.3242 2.40043 13.9507 2.85745 14.4471C3.31447 14.9436 3.91476 15.2853 4.57492 15.425L4.61192 15.61C4.71452 16.1228 4.95059 16.5995 5.2963 16.992C5.64202 17.3844 6.08515 17.6787 6.58097 17.8452C7.07679 18.0116 7.60774 18.0444 8.12024 17.94C8.63274 17.8357 9.10865 17.598 9.49992 17.2509V2.46095Z" fill="black"/>
</svg>
