<svg width="40" height="62" viewBox="0 0 40 62" fill="none" xmlns="http://www.w3.org/2000/svg">
<path fill-rule="evenodd" clip-rule="evenodd" d="M8.89011 22.39C7.75943 22.39 6.63982 22.6127 5.5952 23.0454C4.55059 23.478 3.60143 24.1123 2.80192 24.9118C2.00241 25.7113 1.3682 26.6604 0.935505 27.7051C0.502812 28.7497 0.280109 29.8693 0.280109 31C0.280109 32.1306 0.502812 33.2503 0.935505 34.2949C1.3682 35.3395 2.00241 36.2886 2.80192 37.0882C3.60143 37.8877 4.55059 38.5219 5.5952 38.9546C6.63982 39.3873 7.75943 39.61 8.89011 39.61H17.5001V22.39H8.89011ZM17.5001 17.39H8.89011C6.60615 17.39 4.41574 16.4827 2.80074 14.8677C1.18574 13.2527 0.278441 11.0622 0.278441 8.77829C0.278441 6.49434 1.18574 4.30393 2.80074 2.68892C4.41574 1.07392 6.60615 0.166626 8.89011 0.166626H17.5001V17.39ZM22.5001 0.166626V17.39H31.1101C33.3647 17.3456 35.512 16.4188 37.0908 14.8086C38.6696 13.1985 39.554 11.0333 39.554 8.77829C39.554 6.52324 38.6696 4.35812 37.0908 2.74795C35.512 1.13778 33.3647 0.210986 31.1101 0.166626H22.5001ZM31.1101 22.3866C28.8501 22.3863 26.6806 23.2747 25.0697 24.8599C23.4589 26.4452 22.536 28.6002 22.5001 30.86V31.1366C22.5277 32.8333 23.056 34.484 24.0187 35.8813C24.9814 37.2787 26.3356 38.3605 27.9111 38.9907C29.4866 39.621 31.2132 39.7716 32.874 39.4238C34.5349 39.0759 36.0559 38.245 37.2461 37.0355C38.4362 35.826 39.2425 34.2918 39.5635 32.6255C39.8845 30.9593 39.706 29.2353 39.0504 27.6702C38.3949 26.1051 37.2914 24.7686 35.8787 23.8285C34.466 22.8885 32.807 22.3869 31.1101 22.3866ZM8.89011 44.61C7.18641 44.6093 5.52078 45.1139 4.10389 46.0599C2.68699 47.006 1.58248 48.351 0.93005 49.9248C0.277616 51.4986 0.106567 53.2306 0.438538 54.9016C0.770508 56.5727 1.59059 58.1077 2.79505 59.3127C3.99951 60.5176 5.53426 61.3383 7.20517 61.6709C8.87609 62.0035 10.6081 61.8331 12.1822 61.1813C13.7563 60.5295 15.1017 59.4255 16.0483 58.009C16.9949 56.5924 17.5001 54.927 17.5001 53.2233V44.61H8.89011Z" fill="white"/>
</svg>
