<svg width="18" height="18" viewBox="0 0 18 18" fill="none" xmlns="http://www.w3.org/2000/svg">
<path d="M5.665 12.7349C5.91 12.9079 6.202 12.9999 6.501 12.9989V12.9949C6.78331 12.9956 7.05961 12.9134 7.29555 12.7583C7.53148 12.6033 7.71664 12.3823 7.828 12.1229L8.441 10.2589C8.5825 9.83658 8.82034 9.45301 9.13571 9.13851C9.45107 8.82401 9.8353 8.58722 10.258 8.44689L12.036 7.86889C12.3229 7.76877 12.5708 7.58057 12.7444 7.33116C12.918 7.08174 13.0084 6.78387 13.0026 6.48005C12.9968 6.17623 12.8952 5.882 12.7123 5.63936C12.5294 5.39671 12.2745 5.21806 11.984 5.12889L10.229 4.55889C9.80457 4.41742 9.41894 4.17902 9.10269 3.86258C8.78643 3.54615 8.54824 3.16039 8.407 2.73589L7.829 0.95889C7.7282 0.675865 7.54174 0.431266 7.29553 0.25908C7.04933 0.0868949 6.7556 -0.0043255 6.45517 -0.00190622C6.15474 0.000513064 5.86252 0.096452 5.61912 0.27258C5.37572 0.448708 5.19323 0.696278 5.097 0.98089L4.514 2.77289C4.37322 3.18505 4.14079 3.55991 3.83421 3.86926C3.52763 4.17862 3.15487 4.41441 2.744 4.55889L0.966998 5.12889C0.68179 5.22758 0.434671 5.41315 0.260365 5.65952C0.0860602 5.90589 -0.00666973 6.20069 -0.00479387 6.50248C-0.00291801 6.80428 0.0934692 7.0979 0.270824 7.34209C0.448178 7.58627 0.697585 7.76876 0.983998 7.86389L2.738 8.43289C3.16237 8.57535 3.54784 8.81445 3.86403 9.13133C4.18021 9.44821 4.41847 9.83421 4.56 10.2589L5.138 12.0339C5.237 12.3169 5.421 12.5619 5.665 12.7349ZM13.332 17.7809C13.1412 17.645 12.9978 17.4526 12.922 17.2309L12.594 16.2249C12.5304 16.0334 12.4231 15.8594 12.2806 15.7165C12.1381 15.5737 11.9643 15.466 11.773 15.4019L10.782 15.0789C10.5553 15.0021 10.3582 14.8565 10.2182 14.6623C10.0782 14.4682 10.0023 14.2352 10.001 13.9959C10.0007 13.7579 10.0749 13.5258 10.2132 13.3322C10.3514 13.1385 10.5468 12.9929 10.772 12.9159L11.778 12.5899C11.9651 12.5234 12.1345 12.4149 12.2732 12.2728C12.4119 12.1306 12.5161 11.9586 12.578 11.7699L12.902 10.7789C12.9782 10.5547 13.1222 10.3596 13.3141 10.2208C13.506 10.0819 13.7362 10.0061 13.9731 10.0038C14.2099 10.0015 14.4416 10.0728 14.6361 10.2079C14.8307 10.343 14.9784 10.5352 15.059 10.7579L15.388 11.7719C15.4524 11.962 15.56 12.1346 15.7022 12.2761C15.8445 12.4177 16.0176 12.5244 16.208 12.5879L17.2 12.9109C17.4287 12.9824 17.629 13.1241 17.7727 13.3159C17.9163 13.5076 17.9959 13.7398 18.0002 13.9793C18.0046 14.2189 17.9333 14.4537 17.7967 14.6505C17.6601 14.8474 17.465 14.9962 17.239 15.0759L16.225 15.4049C16.0343 15.4692 15.8612 15.577 15.7193 15.7196C15.5773 15.8623 15.4704 16.0359 15.407 16.2269L15.085 17.2159C15.007 17.4459 14.859 17.6459 14.66 17.7859C14.4659 17.9239 14.2334 17.9976 13.9952 17.9967C13.757 17.9958 13.5251 17.9204 13.332 17.7809Z" fill="black"/>
</svg>
