<svg width="24" height="24" viewBox="0 0 24 24" fill="none" xmlns="http://www.w3.org/2000/svg">
<path d="M4.32423 20.4211C4.32423 20.4211 2.88281 20.4211 2.88281 18.9796C2.88281 17.5382 4.32423 13.214 11.5313 13.214C18.7384 13.214 20.1798 17.5382 20.1798 18.9796C20.1798 20.4211 18.7384 20.4211 18.7384 20.4211H4.32423ZM11.5313 11.7725C12.6782 11.7725 13.7781 11.3169 14.589 10.506C15.4 9.69504 15.8556 8.59515 15.8556 7.44828C15.8556 6.30142 15.4 5.20153 14.589 4.39057C13.7781 3.57961 12.6782 3.12402 11.5313 3.12402C10.3845 3.12402 9.28457 3.57961 8.47362 4.39057C7.66266 5.20153 7.20707 6.30142 7.20707 7.44828C7.20707 8.59515 7.66266 9.69504 8.47362 10.506C9.28457 11.3169 10.3845 11.7725 11.5313 11.7725Z" fill="#FF4A4A"/>
</svg>
