<svg width="47" height="65" viewBox="0 0 47 65" fill="none" xmlns="http://www.w3.org/2000/svg">
<path d="M35.611 13.3175L35.7743 13.4108C33.5635 14.5775 27.246 18.34 27.246 23.1291C27.246 24.745 28.1706 26.3025 29.0368 27.7666C29.801 29.0558 30.5214 30.2691 30.5214 31.3775C30.5214 34.1687 27.8001 36.3358 26.2631 37.3333L25.9714 37.1641C26.5518 36.4554 27.2664 35.2683 27.2664 34.0025C27.2664 32.2583 26.371 30.8641 25.4639 29.4495C24.5247 27.9883 23.5739 26.5037 23.5739 24.5787C23.5739 17.8937 32.6593 14.3062 35.611 13.3175ZM23.6672 16.8525C27.3218 13.5858 31.3147 10.0158 31.3147 4.6462C31.3147 2.21662 30.3201 0.664951 29.8272 0.0437012L29.6668 0.134118C29.7835 0.618285 29.9585 1.51078 29.9585 2.67745C29.9585 7.56578 25.811 10.99 21.7976 14.3091C18.0322 17.4241 14.3835 20.44 14.3835 24.4766C14.3835 30.2662 20.0943 33.8275 22.5064 35.3325L22.6901 35.4491L22.836 35.3616C22.7057 35.2177 22.5676 35.07 22.4218 34.9183C20.5668 32.9437 17.7493 29.9483 17.7493 25.3662C17.7493 22.1491 20.5872 19.6087 23.6672 16.8525ZM22.3518 45.7508C27.4968 45.7508 31.096 45.0129 32.6943 44.5608L35.121 45.9608C32.8081 47.1362 27.6806 48.0316 22.3401 48.0316C16.0606 48.0316 9.19472 46.6841 9.1743 44.8875C9.15972 43.8958 11.4056 43.2366 13.8264 42.8108L13.9722 42.8954C13.9722 42.8954 13.1526 43.19 13.1614 43.8666C13.1731 44.8875 17.3031 45.7508 22.3489 45.7508M12.056 52.0829C12.056 50.8958 14.5031 50.3329 15.6231 50.1083L15.7689 50.1958C15.5764 50.3387 15.4714 50.5341 15.4714 50.7004C15.4714 51.4791 18.1839 52.1908 22.3431 52.1908C26.0706 52.1908 28.1414 51.7329 29.3722 51.4383L32.2597 53.1095C32.1285 53.2029 29.2847 54.9908 22.3372 54.9908C17.2885 54.9908 12.056 53.7308 12.056 52.0829ZM36.9322 47.0429C40.3739 45.08 43.8185 42.7583 44.0139 39.0308C44.1422 36.5837 41.8935 34.79 39.4347 35.2683L39.566 34.9416V34.9358C40.1843 34.7491 40.9485 34.5975 41.8031 34.5975C44.5535 34.5975 46.6622 36.2454 46.9306 38.5525C47.4731 43.1783 40.9164 46.1883 37.2443 47.2237L36.9322 47.0429ZM42.6926 55.7579C42.7218 58.937 31.9068 60.827 22.241 60.9116C13.8964 60.9845 0.441803 59.4095 0.412637 56.2304C0.395137 54.0341 6.24597 52.5145 9.42514 52.077L9.76055 52.2666C9.76055 52.2666 5.02097 53.3662 5.03555 55.3641C5.05305 57.3562 15.0251 59.08 22.2264 59.0187C33.3826 58.9195 40.9339 57.1025 41.8264 54.6379L41.9839 54.5475C42.3106 54.7866 42.6839 55.1804 42.6926 55.7579ZM8.7543 62.2329C12.8812 62.8922 17.0556 63.2093 21.2347 63.1808C39.3414 63.0233 44.4514 58.5725 45.2389 57.6041L45.376 57.6858C45.1893 61.2091 35.6139 64.1375 23.8043 64.2395C17.7931 64.292 12.3214 63.5979 8.38972 62.4458L8.7543 62.2329ZM16.3435 35.1575C13.1964 35.3995 6.43847 36.4 6.43847 38.1791C6.43847 39.5266 12.6335 41.4254 22.3401 41.4254C31.0726 41.4254 36.5851 39.7775 37.8714 39.1504L35.996 38.0566C34.6543 38.4212 29.6697 39.5325 22.3401 39.5325C18.0235 39.5325 10.586 38.7362 10.586 37.52C10.586 36.4291 15.2264 35.5891 16.5593 35.347L16.6439 35.3325L16.3435 35.1575Z" fill="white"/>
</svg>
