<svg width="30" height="30" viewBox="0 0 30 30" fill="none" xmlns="http://www.w3.org/2000/svg">
<path d="M14.9149 11.225L12.8474 13.08C13.1207 14.0155 13.5025 14.9158 13.9849 15.7625C14.4882 16.6031 15.0945 17.3774 15.7899 18.0675L18.4674 17.2425C19.9674 16.78 21.6049 17.255 22.6024 18.4425L24.1274 20.2575C24.7449 20.9861 25.0544 21.9265 24.9905 22.8794C24.9266 23.8323 24.4942 24.7229 23.7849 25.3625C21.2974 27.6325 17.4674 28.4 14.5999 26.1475C12.0786 24.1644 9.94604 21.7317 8.30995 18.9725C6.66969 16.2269 5.5715 13.192 5.07495 10.0325C4.52495 6.47752 7.12745 3.63252 10.3724 2.66252C12.3074 2.08252 14.3724 3.07752 15.0824 4.93252L15.9199 7.12002C16.4699 8.56002 16.0749 10.185 14.9149 11.225Z" fill="white"/>
</svg>
