<svg width="80" height="80" viewBox="0 0 80 80" fill="none" xmlns="http://www.w3.org/2000/svg">
<path d="M35.1668 35.2667C35.2172 36.2788 34.9114 37.2766 34.3024 38.0865C33.6934 38.8965 32.8198 39.4674 31.8335 39.7C30.0934 40.2139 28.2787 40.428 26.4668 40.3333C26.0001 40.3333 25.9668 40.0333 25.9668 39.7V31.2C25.9668 30.9667 26.2001 30.5667 26.3335 30.5667C28.2403 30.3531 30.1697 30.4773 32.0335 30.9333C32.9714 31.1904 33.7934 31.7601 34.3632 32.5482C34.9331 33.3363 35.2166 34.2954 35.1668 35.2667Z" fill="white"/>
<path d="M57 7H23.6667C19.2464 7 15.0072 8.75595 11.8816 11.8816C8.75595 15.0072 7 19.2464 7 23.6667V57C7 61.4203 8.75595 65.6595 11.8816 68.7851C15.0072 71.9107 19.2464 73.6667 23.6667 73.6667H57C61.4203 73.6667 65.6595 71.9107 68.7851 68.7851C71.9107 65.6595 73.6667 61.4203 73.6667 57V23.6667C73.6667 19.2464 71.9107 15.0072 68.7851 11.8816C65.6595 8.75595 61.4203 7 57 7ZM37 43.6667C35.3177 44.7351 33.3898 45.3548 31.4 45.4667H26.9333C26 45.4667 26 45.4667 26 46.3667V54.1C26 54.7667 25.8 54.9667 25.1333 54.9667H20.7333C20.1 54.9667 19.9333 54.7333 19.9333 54.1333V26.0333C19.9333 25.3667 19.9333 25.1667 20.7667 25.1667H31.2C33.1044 25.2183 34.9637 25.7577 36.6 26.7333C38.0132 27.5296 39.1897 28.6866 40.0096 30.0862C40.8294 31.4858 41.2632 33.0779 41.2667 34.7C41.4595 36.4435 41.1624 38.2062 40.4087 39.7902C39.655 41.3741 38.4745 42.7166 37 43.6667ZM56.7333 54.6667C53.8345 55.7961 50.6607 56.017 47.6333 55.3C46.7244 55.1 45.8356 54.8333 44.9667 54.5C44.8327 54.4371 44.7149 54.3443 44.6224 54.2287C44.5299 54.1132 44.4653 53.9779 44.4333 53.8333V48.8C45.5 49.2 46.5 49.6667 47.5333 50C49.2651 50.5535 51.0987 50.7129 52.9 50.4667C53.26 50.4 53.6044 50.2889 53.9333 50.1333C54.1287 50.0478 54.2985 49.913 54.4262 49.7423C54.554 49.5715 54.6352 49.3705 54.6621 49.1589C54.689 48.9474 54.6605 48.7325 54.5795 48.5352C54.4985 48.3379 54.3678 48.165 54.2 48.0333C53.4375 47.5055 52.6219 47.0586 51.7667 46.7C50.4 46.0333 49 45.5 47.7 44.7333C46.5262 44.1623 45.5679 43.2279 44.9674 42.069C44.3669 40.91 44.1562 39.5882 44.3667 38.3C44.5362 37.0602 45.0513 35.8931 45.853 34.9322C46.6547 33.9714 47.7106 33.2556 48.9 32.8667C51.0438 32.1417 53.3313 31.9473 55.5667 32.3C56.6333 32.3 57.6667 32.7 58.7333 32.9C59.3 32.9 59.5 33.3667 59.4667 33.9333V37.8333C59.4667 38.5667 59.3 38.6333 58.6333 38.3667C56.5514 37.4028 54.2501 37.0116 51.9667 37.2333C51.6431 37.271 51.3279 37.361 51.0333 37.5C50.8334 37.5785 50.6574 37.7079 50.5228 37.8754C50.3882 38.0428 50.2997 38.2425 50.266 38.4547C50.2323 38.6668 50.2547 38.8841 50.3308 39.085C50.4069 39.2859 50.5342 39.4634 50.7 39.6C51.6644 40.2422 52.6756 40.7978 53.7333 41.2667C55 41.9 56.3333 42.4 57.5667 43.1C58.6858 43.6093 59.6129 44.4629 60.2125 45.5363C60.8122 46.6097 61.0531 47.8467 60.9 49.0667C60.7946 50.2837 60.3432 51.4451 59.5989 52.4138C58.8547 53.3825 57.8488 54.118 56.7 54.5333L56.7333 54.6667Z" fill="white"/>
</svg>
