<svg width="70" height="38" viewBox="0 0 70 38" fill="none" xmlns="http://www.w3.org/2000/svg">
<path d="M35 0.041626C15.3737 0.041626 0 8.36871 0 19C0 29.6312 15.3737 37.9583 35 37.9583C54.6263 37.9583 70 29.6312 70 19C70 8.36871 54.6263 0.041626 35 0.041626ZM31.3658 5.87496H35.1867L33.9733 11.7083H37.3858C39.55 11.7083 41.0025 12.0116 41.8308 12.767C42.6388 13.5137 42.8838 14.7387 42.56 16.407L41.0433 23.375H37.1583L38.5554 16.932C38.7226 16.0434 38.6575 15.4358 38.36 15.1091C38.0654 14.7854 37.415 14.625 36.4408 14.625H33.3812L31.535 23.375H27.7083L31.3658 5.87496ZM14.5833 11.7083H22.3592C26.0662 11.7083 28.3121 14.1933 27.4342 17.9004C26.4133 22.2083 23.6833 23.375 18.655 23.375H16.2517L15.4904 27.75H11.6258L14.5833 11.7083ZM45.2083 11.7083H52.9842C56.6913 11.7083 58.9371 14.1933 58.0592 17.9004C57.0383 22.2083 54.3054 23.375 49.28 23.375H46.8767L46.1154 27.75H42.2508L45.2083 11.7083ZM17.8938 14.625L16.7942 20.4583H19.2879C21.4463 20.4583 23.4529 20.2133 23.7883 16.9962C23.9138 15.7479 23.3946 14.625 20.9008 14.625H17.8938ZM48.5188 14.625L47.4192 20.4583H49.9129C52.0713 20.4583 54.0779 20.2133 54.4133 16.9962C54.5388 15.7479 54.0225 14.625 51.5258 14.625H48.5188Z" fill="white"/>
</svg>
