<svg width="24" height="24" viewBox="0 0 24 24" fill="none" xmlns="http://www.w3.org/2000/svg">
<path d="M5.82503 13L7.70003 14.875C7.88336 15.075 7.97936 15.3127 7.98803 15.588C7.99669 15.8634 7.90069 16.1007 7.70003 16.3C7.49936 16.4994 7.26603 16.5994 7.00003 16.6C6.73403 16.6007 6.50069 16.5007 6.30003 16.3L2.70003 12.7C2.60003 12.6 2.52903 12.4917 2.48703 12.375C2.44503 12.2584 2.42469 12.1334 2.42603 12C2.42736 11.8667 2.44836 11.7417 2.48903 11.625C2.52969 11.5084 2.60036 11.4 2.70103 11.3L6.30103 7.70003C6.50103 7.50003 6.73436 7.40003 7.00103 7.40003C7.26769 7.40003 7.50103 7.50003 7.70103 7.70003C7.90103 7.90003 8.00103 8.13769 8.00103 8.41303C8.00103 8.68836 7.90103 8.92569 7.70103 9.12503L5.82503 11H18.175L16.3 9.12503C16.1167 8.92503 16.021 8.68769 16.013 8.41303C16.005 8.13836 16.1007 7.90069 16.3 7.70003C16.4994 7.49936 16.7327 7.39936 17 7.40003C17.2674 7.40069 17.5007 7.50069 17.7 7.70003L21.3 11.3C21.4 11.4 21.471 11.5084 21.513 11.625C21.555 11.7417 21.5757 11.8667 21.575 12C21.5744 12.1334 21.5537 12.2584 21.513 12.375C21.4724 12.4917 21.4014 12.6 21.3 12.7L17.7 16.3C17.5 16.5 17.2667 16.6 17 16.6C16.7334 16.6 16.5 16.5 16.3 16.3C16.1 16.1 16 15.8627 16 15.588C16 15.3134 16.1 15.0757 16.3 14.875L18.175 13H5.82503Z" fill="black"/>
</svg>
