<svg width="25" height="25" viewBox="0 0 25 25" fill="none" xmlns="http://www.w3.org/2000/svg">
<path d="M12.5 3.12817C12.09 3.12817 11.6841 3.20892 11.3053 3.36581C10.9265 3.5227 10.5824 3.75266 10.2925 4.04255C10.0026 4.33244 9.77265 4.6766 9.61576 5.05536C9.45887 5.43412 9.37812 5.84008 9.37812 6.25005C9.37812 6.66002 9.45887 7.06598 9.61576 7.44474C9.77265 7.8235 10.0026 8.16765 10.2925 8.45755C10.5824 8.74744 10.9265 8.9774 11.3053 9.13429C11.6841 9.29117 12.09 9.37192 12.5 9.37192C13.328 9.37192 14.122 9.04301 14.7075 8.45755C15.293 7.87208 15.6219 7.07802 15.6219 6.25005C15.6219 5.42208 15.293 4.62801 14.7075 4.04255C14.122 3.45708 13.328 3.12817 12.5 3.12817ZM19.5312 4.68755C18.9096 4.68755 18.3135 4.93448 17.874 5.37402C17.4344 5.81356 17.1875 6.4097 17.1875 7.0313C17.1875 7.6529 17.4344 8.24904 17.874 8.68858C18.3135 9.12812 18.9096 9.37505 19.5312 9.37505C20.1529 9.37505 20.749 9.12812 21.1885 8.68858C21.6281 8.24904 21.875 7.6529 21.875 7.0313C21.875 6.4097 21.6281 5.81356 21.1885 5.37402C20.749 4.93448 20.1529 4.68755 19.5312 4.68755ZM5.46875 4.68755C4.84715 4.68755 4.25101 4.93448 3.81147 5.37402C3.37193 5.81356 3.125 6.4097 3.125 7.0313C3.125 7.6529 3.37193 8.24904 3.81147 8.68858C4.25101 9.12812 4.84715 9.37505 5.46875 9.37505C6.09035 9.37505 6.68649 9.12812 7.12603 8.68858C7.56557 8.24904 7.8125 7.6529 7.8125 7.0313C7.8125 6.4097 7.56557 5.81356 7.12603 5.37402C6.68649 4.93448 6.09035 4.68755 5.46875 4.68755ZM7.8125 12.4891C7.81539 12.0766 7.98128 11.682 8.27399 11.3913C8.56671 11.1007 8.96249 10.9375 9.375 10.9375H15.625C16.0394 10.9375 16.4368 11.1022 16.7299 11.3952C17.0229 11.6882 17.1875 12.0856 17.1875 12.5V17.1875C17.1879 17.6793 17.1109 18.1681 16.9594 18.636C16.6134 19.6965 15.9007 20.5989 14.9492 21.1811C13.9978 21.7634 12.8699 21.9874 11.7682 21.813C10.6664 21.6385 9.66294 21.077 8.93794 20.2292C8.21294 19.3815 7.81391 18.303 7.8125 17.1875V12.4891ZM6.25 12.5C6.25 11.9297 6.40156 11.3969 6.66875 10.9375H3.125C2.7106 10.9375 2.31317 11.1022 2.02015 11.3952C1.72712 11.6882 1.5625 12.0856 1.5625 12.5V16.4063C1.56229 17.0458 1.7191 17.6756 2.01918 18.2404C2.31925 18.8052 2.7534 19.2876 3.2835 19.6454C3.81361 20.0032 4.42344 20.2253 5.05946 20.2923C5.69548 20.3594 6.33823 20.2692 6.93125 20.0297C6.48249 19.149 6.24902 18.1744 6.25 17.186V12.5ZM18.75 12.5V17.1875C18.75 18.211 18.5047 19.1766 18.0688 20.0297C18.6618 20.2692 19.3045 20.3594 19.9405 20.2923C20.5766 20.2253 21.1864 20.0032 21.7165 19.6454C22.2466 19.2876 22.6808 18.8052 22.9808 18.2404C23.2809 17.6756 23.4377 17.0458 23.4375 16.4063V12.5C23.4375 12.0856 23.2729 11.6882 22.9799 11.3952C22.6868 11.1022 22.2894 10.9375 21.875 10.9375H18.3313C18.5969 11.3969 18.75 11.9297 18.75 12.5Z" fill="black"/>
</svg>
